<svg id="visual" viewBox="0 0 900 900" width="900" height="900" xmlns="http://www.w3.org/2000/svg" xmlns:xlink="http://www.w3.org/1999/xlink" version="1.1"><rect x="0" y="0" width="900" height="900" fill="#140021"></rect><path d="M0 37L64 37L64 243L129 243L129 207L193 207L193 37L257 37L257 251L321 251L321 164L386 164L386 51L450 51L450 278L514 278L514 183L579 183L579 75L643 75L643 38L707 38L707 90L771 90L771 172L836 172L836 160L900 160L900 275L900 901L900 901L836 901L836 901L771 901L771 901L707 901L707 901L643 901L643 901L579 901L579 901L514 901L514 901L450 901L450 901L386 901L386 901L321 901L321 901L257 901L257 901L193 901L193 901L129 901L129 901L64 901L64 901L0 901Z" fill="#00f7ff"></path><path d="M0 133L64 133L64 355L129 355L129 345L193 345L193 210L257 210L257 194L321 194L321 164L386 164L386 180L450 180L450 184L514 184L514 324L579 324L579 228L643 228L643 135L707 135L707 359L771 359L771 222L836 222L836 277L900 277L900 278L900 901L900 901L836 901L836 901L771 901L771 901L707 901L707 901L643 901L643 901L579 901L579 901L514 901L514 901L450 901L450 901L386 901L386 901L321 901L321 901L257 901L257 901L193 901L193 901L129 901L129 901L64 901L64 901L0 901Z" fill="#00e5ff"></path><path d="M0 429L64 429L64 229L129 229L129 355L193 355L193 313L257 313L257 431L321 431L321 356L386 356L386 406L450 406L450 262L514 262L514 353L579 353L579 393L643 393L643 337L707 337L707 347L771 347L771 413L836 413L836 411L900 411L900 307L900 901L900 901L836 901L836 901L771 901L771 901L707 901L707 901L643 901L643 901L579 901L579 901L514 901L514 901L450 901L450 901L386 901L386 901L321 901L321 901L257 901L257 901L193 901L193 901L129 901L129 901L64 901L64 901L0 901Z" fill="#00d1ff"></path><path d="M0 316L64 316L64 372L129 372L129 384L193 384L193 363L257 363L257 398L321 398L321 431L386 431L386 470L450 470L450 462L514 462L514 451L579 451L579 330L643 330L643 371L707 371L707 338L771 338L771 344L836 344L836 419L900 419L900 331L900 901L900 901L836 901L836 901L771 901L771 901L707 901L707 901L643 901L643 901L579 901L579 901L514 901L514 901L450 901L450 901L386 901L386 901L321 901L321 901L257 901L257 901L193 901L193 901L129 901L129 901L64 901L64 901L0 901Z" fill="#00bcff"></path><path d="M0 395L64 395L64 531L129 531L129 460L193 460L193 397L257 397L257 440L321 440L321 436L386 436L386 479L450 479L450 437L514 437L514 500L579 500L579 565L643 565L643 522L707 522L707 491L771 491L771 477L836 477L836 572L900 572L900 558L900 901L900 901L836 901L836 901L771 901L771 901L707 901L707 901L643 901L643 901L579 901L579 901L514 901L514 901L450 901L450 901L386 901L386 901L321 901L321 901L257 901L257 901L193 901L193 901L129 901L129 901L64 901L64 901L0 901Z" fill="#00a6ff"></path><path d="M0 538L64 538L64 510L129 510L129 545L193 545L193 551L257 551L257 635L321 635L321 559L386 559L386 634L450 634L450 618L514 618L514 564L579 564L579 500L643 500L643 540L707 540L707 600L771 600L771 518L836 518L836 560L900 560L900 484L900 901L900 901L836 901L836 901L771 901L771 901L707 901L707 901L643 901L643 901L579 901L579 901L514 901L514 901L450 901L450 901L386 901L386 901L321 901L321 901L257 901L257 901L193 901L193 901L129 901L129 901L64 901L64 901L0 901Z" fill="#008dff"></path><path d="M0 693L64 693L64 574L129 574L129 578L193 578L193 653L257 653L257 597L321 597L321 620L386 620L386 667L450 667L450 668L514 668L514 686L579 686L579 596L643 596L643 695L707 695L707 636L771 636L771 615L836 615L836 595L900 595L900 679L900 901L900 901L836 901L836 901L771 901L771 901L707 901L707 901L643 901L643 901L579 901L579 901L514 901L514 901L450 901L450 901L386 901L386 901L321 901L321 901L257 901L257 901L193 901L193 901L129 901L129 901L64 901L64 901L0 901Z" fill="#0071ff"></path><path d="M0 678L64 678L64 755L129 755L129 798L193 798L193 667L257 667L257 662L321 662L321 729L386 729L386 689L450 689L450 716L514 716L514 751L579 751L579 729L643 729L643 800L707 800L707 759L771 759L771 756L836 756L836 693L900 693L900 714L900 901L900 901L836 901L836 901L771 901L771 901L707 901L707 901L643 901L643 901L579 901L579 901L514 901L514 901L450 901L450 901L386 901L386 901L321 901L321 901L257 901L257 901L193 901L193 901L129 901L129 901L64 901L64 901L0 901Z" fill="#004fff"></path><path d="M0 879L64 879L64 746L129 746L129 852L193 852L193 879L257 879L257 825L321 825L321 880L386 880L386 814L450 814L450 793L514 793L514 756L579 756L579 815L643 815L643 860L707 860L707 764L771 764L771 856L836 856L836 787L900 787L900 871L900 901L900 901L836 901L836 901L771 901L771 901L707 901L707 901L643 901L643 901L579 901L579 901L514 901L514 901L450 901L450 901L386 901L386 901L321 901L321 901L257 901L257 901L193 901L193 901L129 901L129 901L64 901L64 901L0 901Z" fill="#0c1aef"></path></svg>